<?xml version="1.0" encoding="UTF-8"?>
<!DOCTYPE svg PUBLIC "-//W3C//DTD SVG 1.1//EN" "http://www.w3.org/Graphics/SVG/1.1/DTD/svg11.dtd">
<svg xmlns="http://www.w3.org/2000/svg" version="1.1" width="21px" height="20px" style="shape-rendering:geometricPrecision; text-rendering:geometricPrecision; image-rendering:optimizeQuality; fill-rule:evenodd; clip-rule:evenodd" xmlns:xlink="http://www.w3.org/1999/xlink">
<g><path style="opacity:0.711" fill="#353852" d="M -0.5,-0.5 C 0.833333,-0.5 2.16667,-0.5 3.5,-0.5C 3.5,0.833333 3.5,2.16667 3.5,3.5C 9.25858,3.21427 14.9252,3.5476 20.5,4.5C 20.5,5.5 20.5,6.5 20.5,7.5C 19.9669,10.1215 18.9669,12.6215 17.5,15C 13.1667,15.6667 8.83333,15.6667 4.5,15C 2.79517,10.3841 1.12851,5.88412 -0.5,1.5C -0.5,0.833333 -0.5,0.166667 -0.5,-0.5 Z M 4.5,5.5 C 8.83333,5.5 13.1667,5.5 17.5,5.5C 17.7564,7.7925 17.4231,9.95917 16.5,12C 12.5138,12.4988 8.51383,12.6655 4.5,12.5C 4.5,10.1667 4.5,7.83333 4.5,5.5 Z"/></g>
<g><path style="opacity:0.612" fill="#353751" d="M 11.5,6.5 C 12.8333,6.5 14.1667,6.5 15.5,6.5C 15.5,7.5 15.5,8.5 15.5,9.5C 13.712,9.78522 12.0453,9.45189 10.5,8.5C 10.8627,7.81654 11.1961,7.14987 11.5,6.5 Z"/></g>
<g><path style="opacity:0.547" fill="#353653" d="M 6.5,19.5 C 5.5,19.5 4.5,19.5 3.5,19.5C 3.5,18.5 3.5,17.5 3.5,16.5C 4.5,16.5 5.5,16.5 6.5,16.5C 6.5,17.5 6.5,18.5 6.5,19.5 Z"/></g>
<g><path style="opacity:0.376" fill="#363851" d="M 17.5,19.5 C 16.5,19.5 15.5,19.5 14.5,19.5C 14.5,18.5 14.5,17.5 14.5,16.5C 15.5,16.5 16.5,16.5 17.5,16.5C 17.5,17.5 17.5,18.5 17.5,19.5 Z"/></g>
</svg>
