<?xml version="1.0" encoding="UTF-8"?>
<!DOCTYPE svg PUBLIC "-//W3C//DTD SVG 1.1//EN" "http://www.w3.org/Graphics/SVG/1.1/DTD/svg11.dtd">
<svg xmlns="http://www.w3.org/2000/svg" version="1.1" width="39px" height="39px" style="shape-rendering:geometricPrecision; text-rendering:geometricPrecision; image-rendering:optimizeQuality; fill-rule:evenodd; clip-rule:evenodd" xmlns:xlink="http://www.w3.org/1999/xlink">
<g><path style="opacity:0.962" fill="#ededee" d="M 12.5,-0.5 C 16.8333,-0.5 21.1667,-0.5 25.5,-0.5C 31.5,2.16667 35.8333,6.5 38.5,12.5C 38.5,16.8333 38.5,21.1667 38.5,25.5C 35.8333,31.5 31.5,35.8333 25.5,38.5C 21.1667,38.5 16.8333,38.5 12.5,38.5C 6.5,35.8333 2.16667,31.5 -0.5,25.5C -0.5,21.1667 -0.5,16.8333 -0.5,12.5C 2.16667,6.5 6.5,2.16667 12.5,-0.5 Z"/></g>
<g><path style="opacity:1" fill="#acacb7" d="M 23.5,8.5 C 24.4345,9.56764 24.7678,10.901 24.5,12.5C 23.1667,12.5 21.8333,12.5 20.5,12.5C 21.209,11.596 22.209,11.2627 23.5,11.5C 23.5,10.5 23.5,9.5 23.5,8.5 Z"/></g>
<g><path style="opacity:1" fill="#393b56" d="M 23.5,8.5 C 23.5,9.5 23.5,10.5 23.5,11.5C 22.209,11.2627 21.209,11.596 20.5,12.5C 19.5655,13.5676 19.2322,14.901 19.5,16.5C 20.8333,16.5 22.1667,16.5 23.5,16.5C 23.5,17.5 23.5,18.5 23.5,19.5C 22.5,19.5 21.5,19.5 20.5,19.5C 19.5233,22.2869 19.19,25.2869 19.5,28.5C 18.5,28.5 17.5,28.5 16.5,28.5C 17.0545,24.9878 16.3878,21.9878 14.5,19.5C 14.5271,17.8007 15.1938,16.4674 16.5,15.5C 15.8553,10.3057 18.1886,7.97239 23.5,8.5 Z"/></g>
<g><path style="opacity:1" fill="#838494" d="M 20.5,12.5 C 20.5,13.5 20.5,14.5 20.5,15.5C 21.791,15.2627 22.791,15.596 23.5,16.5C 22.1667,16.5 20.8333,16.5 19.5,16.5C 19.2322,14.901 19.5655,13.5676 20.5,12.5 Z"/></g>
<g><path style="opacity:1" fill="#8b8b9a" d="M 16.5,15.5 C 15.1938,16.4674 14.5271,17.8007 14.5,19.5C 13.5655,18.4324 13.2322,17.099 13.5,15.5C 14.5,15.5 15.5,15.5 16.5,15.5 Z"/></g>
<g><path style="opacity:1" fill="#78798a" d="M 20.5,19.5 C 20.5,22.8333 20.5,26.1667 20.5,29.5C 18.901,29.7678 17.5676,29.4345 16.5,28.5C 17.5,28.5 18.5,28.5 19.5,28.5C 19.19,25.2869 19.5233,22.2869 20.5,19.5 Z"/></g>
</svg>
