<?xml version="1.0" encoding="UTF-8"?>
<!DOCTYPE svg PUBLIC "-//W3C//DTD SVG 1.1//EN" "http://www.w3.org/Graphics/SVG/1.1/DTD/svg11.dtd">
<svg xmlns="http://www.w3.org/2000/svg" version="1.1" width="39px" height="39px" style="shape-rendering:geometricPrecision; text-rendering:geometricPrecision; image-rendering:optimizeQuality; fill-rule:evenodd; clip-rule:evenodd" xmlns:xlink="http://www.w3.org/1999/xlink">
<g><path style="opacity:0.959" fill="#ebebec" d="M 12.5,-0.5 C 16.8333,-0.5 21.1667,-0.5 25.5,-0.5C 31.5,2.16667 35.8333,6.5 38.5,12.5C 38.5,16.8333 38.5,21.1667 38.5,25.5C 35.8333,31.5 31.5,35.8333 25.5,38.5C 21.1667,38.5 16.8333,38.5 12.5,38.5C 6.5,35.8333 2.16667,31.5 -0.5,25.5C -0.5,21.1667 -0.5,16.8333 -0.5,12.5C 2.16667,6.5 6.5,2.16667 12.5,-0.5 Z"/></g>
<g><path style="opacity:1" fill="#454760" d="M 16.5,8.5 C 25.8299,8.81871 28.4965,13.152 24.5,21.5C 22.4168,23.6044 20.0835,23.9377 17.5,22.5C 16.6667,24.5 15.8333,26.5 15,28.5C 14.6683,23.8098 15.0017,19.1431 16,14.5C 17.0113,13.6634 18.1779,13.33 19.5,13.5C 18.9084,16.1272 18.5751,18.7938 18.5,21.5C 20.3904,21.7035 21.8904,21.0368 23,19.5C 25.1681,13.021 23.0014,10.1877 16.5,11C 13.9727,13.5736 12.806,16.7403 13,20.5C 10.6972,18.6618 10.0306,16.3285 11,13.5C 12.7297,11.5981 14.563,9.93142 16.5,8.5 Z"/></g>
</svg>
