<?xml version="1.0" standalone="no"?>
<!DOCTYPE svg PUBLIC "-//W3C//DTD SVG 20010904//EN"
 "http://www.w3.org/TR/2001/REC-SVG-20010904/DTD/svg10.dtd">
<svg version="1.0" xmlns="http://www.w3.org/2000/svg"
 width="39.000000pt" height="39.000000pt" viewBox="0 0 39.000000 39.000000"
 preserveAspectRatio="xMidYMid meet">

<g transform="translate(0.000000,39.000000) scale(0.100000,-0.100000)"
fill="#000000" stroke="none">
<path d="M204 255 c-29 -29 -42 -31 -70 -10 -28 21 -34 18 -30 -12 5 -40 24
-83 36 -83 21 0 -1 -20 -23 -21 -21 0 -21 -1 -2 -9 59 -26 131 10 153 75 21
61 23 77 9 72 -7 -2 -20 0 -30 5 -13 6 -24 2 -43 -17z"/>
</g>
</svg>
